# xmcd CD database file
#
# Track frame offsets:
#	150
#	19193
#	43299
#	55454
#	78063
#	93528
#	123381
#	147295
#	157328
#
# Disc length: 2530 seconds
#
# Revision: 0
# Processed by: cddbd v1.5PL3 Copyright (c) Steve Scherf et al.
# Submitted via: CDex 1.51
#
DISCID=7c09e009
DTITLE=カラテクノ - 空手ガバ一代
DYEAR=1996
DGENRE=Techno
TTITLE0=ふれあいインターネット
TTITLE1=おはよう朝日death
TTITLE2=トリオ・ダ・安田 (安田・円生・大和川)
TTITLE3=風呂
TTITLE4=小学生日記
TTITLE5=MUSASHI
TTITLE6=滋賀ナンバー
TTITLE7=イモゴリラ
TTITLE8=Gunbarey_sion (おまえが一番かんばれmix)
EXTD=YEAR: 1996
EXTT0=
EXTT1=
EXTT2=
EXTT3=
EXTT4=
EXTT5=
EXTT6=
EXTT7=
EXTT8=
PLAYORDER=
